<svg width="58" height="58" viewBox="0 0 58 58" fill="none" xmlns="http://www.w3.org/2000/svg">
<rect width="58" height="58" rx="5" fill="#FBFF00"/>
<path d="M31.5057 34.5455H35.1534V46.7159C35.1534 47.8409 34.9006 48.8182 34.3949 49.6477C33.8949 50.4773 33.1989 51.1165 32.3068 51.5653C31.4148 52.0142 30.3778 52.2386 29.196 52.2386C28.1449 52.2386 27.1903 52.054 26.3324 51.6847C25.4801 51.3097 24.804 50.7415 24.304 49.9801C23.804 49.2131 23.5568 48.25 23.5625 47.0909H27.2358C27.2472 47.5511 27.3409 47.946 27.517 48.2756C27.6989 48.5994 27.946 48.8494 28.2585 49.0256C28.5767 49.196 28.9517 49.2812 29.3835 49.2812C29.8381 49.2812 30.2216 49.1847 30.5341 48.9915C30.8523 48.7926 31.0938 48.5028 31.2585 48.1222C31.4233 47.7415 31.5057 47.2727 31.5057 46.7159V34.5455ZM47.6733 39.5653C47.6051 38.8778 47.3125 38.3437 46.7955 37.9631C46.2784 37.5824 45.5767 37.392 44.6903 37.392C44.0881 37.392 43.5795 37.4773 43.1648 37.6477C42.75 37.8125 42.4318 38.0426 42.2102 38.3381C41.9943 38.6335 41.8864 38.9688 41.8864 39.3438C41.875 39.6562 41.9403 39.929 42.0824 40.1619C42.2301 40.3949 42.4318 40.5966 42.6875 40.767C42.9432 40.9318 43.2386 41.0767 43.5739 41.2017C43.9091 41.321 44.267 41.4233 44.6477 41.5085L46.2159 41.8835C46.9773 42.054 47.6761 42.2812 48.3125 42.5653C48.9489 42.8494 49.5 43.1989 49.9659 43.6136C50.4318 44.0284 50.7926 44.517 51.0483 45.0795C51.3097 45.642 51.4432 46.2869 51.4489 47.0142C51.4432 48.0824 51.1705 49.0085 50.6307 49.7926C50.0966 50.571 49.3239 51.1761 48.3125 51.608C47.3068 52.0341 46.0938 52.2472 44.6733 52.2472C43.2642 52.2472 42.0369 52.0312 40.9915 51.5994C39.9517 51.1676 39.1392 50.5284 38.554 49.6818C37.9744 48.8295 37.6705 47.7756 37.642 46.5199H41.2131C41.2528 47.1051 41.4205 47.5937 41.7159 47.9858C42.017 48.3722 42.4176 48.6648 42.9176 48.8636C43.4233 49.0568 43.9943 49.1534 44.6307 49.1534C45.2557 49.1534 45.7983 49.0625 46.2585 48.8807C46.7244 48.6989 47.0852 48.446 47.3409 48.1222C47.5966 47.7983 47.7244 47.4261 47.7244 47.0057C47.7244 46.6136 47.608 46.2841 47.375 46.017C47.1477 45.75 46.8125 45.5227 46.3693 45.3352C45.9318 45.1477 45.3949 44.9773 44.7585 44.8239L42.858 44.3466C41.3864 43.9886 40.2244 43.429 39.3722 42.6676C38.5199 41.9062 38.0966 40.8807 38.1023 39.5909C38.0966 38.5341 38.3778 37.6108 38.946 36.821C39.5199 36.0312 40.3068 35.4148 41.3068 34.9716C42.3068 34.5284 43.4432 34.3068 44.7159 34.3068C46.0114 34.3068 47.142 34.5284 48.108 34.9716C49.0795 35.4148 49.8352 36.0312 50.375 36.821C50.9148 37.6108 51.1932 38.5256 51.2102 39.5653H47.6733Z" fill="black"/>
</svg>
